<?xml version="1.0" standalone="no"?>
<!DOCTYPE svg PUBLIC "-//W3C//DTD SVG 20010904//EN"
 "http://www.w3.org/TR/2001/REC-SVG-20010904/DTD/svg10.dtd">
<svg version="1.0" xmlns="http://www.w3.org/2000/svg"
 width="512.000000pt" height="512.000000pt" viewBox="0 0 512.000000 512.000000"
 preserveAspectRatio="xMidYMid meet">
<metadata>
Created by potrace 1.14, written by Peter Selinger 2001-2017
</metadata>
<g transform="translate(0.000000,512.000000) scale(0.100000,-0.100000)"
fill="#000000" stroke="none">
<path d="M2820 4640 c13 -25 13 -25 -8 -7 -15 14 -21 15 -26 5 -5 -11 -7 -10
-12 1 -5 11 -8 11 -15 0 -7 -12 -9 -11 -9 1 0 11 -2 12 -8 2 -5 -7 -18 -14
-31 -17 -12 -2 -19 0 -16 6 4 5 1 9 -4 9 -6 0 -11 -5 -11 -10 0 -7 -7 -7 -21
1 -17 9 -20 8 -14 -2 6 -8 4 -11 -7 -6 -9 3 -21 0 -28 -6 -10 -9 -11 -9 -6 0
4 8 -1 11 -14 10 -11 -1 -18 -7 -16 -13 3 -7 -3 -10 -15 -7 -10 3 -16 9 -13
14 3 5 0 9 -5 9 -6 0 -11 -4 -11 -10 0 -14 -57 -13 -66 2 -5 7 -11 5 -21 -7
-9 -13 -13 -14 -13 -5 0 9 -4 8 -14 -5 -13 -18 -15 -18 -30 -2 -22 22 -27 21
-19 0 5 -14 3 -15 -7 -6 -15 14 -43 5 -33 -11 4 -6 -1 -4 -11 4 -25 20 -49 22
-42 4 4 -10 2 -13 -6 -7 -17 10 -80 4 -97 -10 -12 -9 -13 -9 -7 1 4 6 3 12 -3
12 -5 0 -12 -4 -15 -8 -6 -10 -36 -9 -53 1 -6 4 -15 3 -18 -3 -5 -8 -12 -7
-23 2 -13 11 -14 11 -8 0 7 -11 1 -13 -29 -9 -26 4 -38 1 -42 -10 -3 -8 -11
-12 -18 -9 -8 3 -10 -4 -7 -22 4 -26 3 -26 -10 -8 -9 12 -20 16 -29 12 -8 -4
-6 -1 4 7 16 13 16 15 2 21 -9 3 -13 2 -10 -4 3 -6 1 -10 -4 -10 -6 0 -11 4
-11 9 0 10 -19 9 -37 -2 -7 -5 -13 -5 -13 -1 0 3 -8 0 -17 -7 -15 -12 -16 -12
-8 1 4 8 5 12 0 8 -4 -4 -14 -3 -22 4 -11 9 -15 7 -20 -10 -3 -12 -10 -22 -15
-22 -5 0 -7 4 -3 9 3 5 0 13 -6 17 -8 4 -9 3 -5 -4 4 -7 2 -12 -4 -12 -6 0 -8
-5 -4 -12 5 -8 0 -9 -15 -5 -17 4 -20 3 -11 -7 8 -10 4 -12 -17 -8 -22 4 -25
2 -20 -13 6 -13 3 -16 -9 -11 -12 4 -15 2 -10 -9 3 -10 -1 -15 -12 -16 -9 0
-12 -3 -5 -5 13 -6 6 -34 -9 -34 -5 0 -6 5 -2 12 5 7 3 8 -5 3 -9 -5 -10 -10
-2 -18 14 -14 14 -47 1 -47 -12 0 -9 -22 4 -31 5 -4 -1 -10 -13 -14 -21 -6
-22 -7 -4 -21 10 -7 13 -14 6 -14 -7 0 -10 -7 -6 -17 4 -9 2 -14 -3 -10 -5 3
-10 -3 -10 -13 0 -14 4 -16 12 -9 9 8 11 5 7 -12 -5 -16 -3 -20 6 -15 10 6 10
3 0 -12 -11 -17 -10 -24 2 -38 12 -16 12 -17 -1 -9 -9 5 -7 -1 5 -15 11 -13
15 -20 9 -17 -7 4 -15 0 -18 -9 -4 -11 -2 -15 8 -11 11 4 13 0 7 -21 -8 -30
-3 -65 8 -58 4 3 8 -5 8 -17 2 -15 0 -18 -6 -8 -5 8 -8 0 -7 -23 0 -20 5 -36
9 -36 5 0 5 -5 2 -11 -10 -15 -12 -69 -3 -63 4 3 7 -5 7 -18 -1 -13 2 -32 6
-42 6 -14 5 -17 -4 -11 -10 6 -11 3 -3 -11 5 -11 7 -24 5 -31 -2 -7 0 -20 6
-31 7 -13 7 -22 -1 -30 -7 -7 -8 -12 -2 -12 5 0 10 -9 10 -19 0 -11 -3 -18 -7
-15 -10 6 -5 -24 6 -33 4 -4 5 -2 0 6 -6 10 -4 12 4 7 9 -6 9 -11 0 -22 -8
-10 -8 -14 0 -14 6 0 11 -5 11 -11 0 -5 -4 -8 -9 -4 -10 6 -8 -17 5 -49 6 -15
4 -18 -7 -12 -8 4 -6 1 3 -7 13 -10 15 -16 6 -25 -9 -9 -9 -12 -1 -12 12 0 10
-30 -2 -50 -3 -6 -2 -10 4 -10 5 0 12 6 15 13 3 6 3 1 0 -13 -4 -14 -11 -28
-16 -31 -6 -4 -5 -8 3 -11 9 -3 12 -18 11 -42 -2 -26 1 -35 9 -31 6 4 3 -4 -6
-19 -17 -25 -17 -26 0 -19 14 5 16 3 9 -8 -11 -18 -12 -69 -1 -69 4 0 5 -6 0
-12 -9 -16 -12 -59 -3 -53 3 2 12 0 20 -6 13 -7 13 -9 0 -9 -9 0 -3 -11 17
-29 18 -15 29 -32 25 -37 -4 -4 1 -2 11 6 17 12 18 12 15 -6 -2 -11 2 -18 9
-17 7 2 10 -3 7 -11 -3 -7 3 -19 12 -27 16 -12 17 -12 9 1 -7 12 -6 13 6 2 8
-7 14 -16 14 -20 0 -4 9 -19 19 -35 16 -23 21 -25 34 -15 13 11 14 11 8 0 -11
-19 21 -62 46 -62 12 0 18 -3 15 -7 -4 -3 -2 -12 4 -20 6 -7 8 -13 3 -13 -4 0
7 -13 25 -29 18 -16 30 -34 27 -40 -5 -7 -1 -8 10 -4 14 5 16 3 11 -11 -4 -9
-3 -15 1 -12 4 2 16 -2 27 -10 13 -10 15 -14 4 -14 -12 0 -12 -2 1 -9 8 -6 19
-7 25 -3 5 3 4 -2 -4 -11 -12 -15 -11 -17 3 -17 10 0 14 -4 11 -10 -3 -5 -1
-10 4 -10 6 0 11 -7 11 -16 0 -8 5 -12 10 -9 6 3 10 -3 10 -14 0 -11 5 -23 12
-27 7 -5 8 -3 3 7 -7 12 -6 12 7 1 10 -8 14 -20 11 -30 -6 -15 -5 -16 12 -2
11 9 16 10 11 3 -4 -8 -2 -13 4 -13 6 0 9 -4 5 -9 -3 -5 4 -13 16 -16 16 -5
18 -9 9 -15 -9 -6 -7 -10 9 -15 12 -3 19 -11 16 -16 -4 -5 2 -9 12 -9 10 0 31
-17 48 -38 17 -22 21 -31 10 -22 -19 14 -19 14 -6 -3 8 -10 20 -16 27 -13 8 3
13 2 13 -2 -3 -20 2 -33 11 -27 6 3 10 -3 10 -14 0 -12 5 -21 11 -21 5 0 7 -5
4 -10 -4 -6 -3 -10 2 -9 18 3 47 -3 36 -8 -7 -2 -13 -12 -12 -21 0 -11 2 -12
6 -4 2 6 9 12 14 12 6 0 8 -4 5 -8 -3 -5 4 -14 14 -22 10 -8 16 -18 13 -24 -3
-6 -3 -8 2 -4 10 10 37 -11 29 -23 -3 -5 1 -6 9 -3 19 7 32 -12 16 -22 -8 -5
-9 -3 -4 6 5 9 4 11 -3 6 -9 -5 -9 -13 -2 -27 6 -10 13 -19 16 -19 3 0 2 5 -2
12 -4 7 -3 8 5 4 9 -6 9 -11 1 -21 -9 -11 -6 -13 17 -9 19 3 24 2 14 -5 -12
-8 -12 -12 2 -26 10 -9 17 -21 17 -27 0 -6 3 -8 6 -5 9 9 46 -12 39 -22 -3 -5
2 -11 10 -15 8 -3 15 -15 15 -26 0 -11 7 -20 16 -20 8 0 13 -4 9 -10 -3 -5 6
-17 20 -26 13 -9 22 -21 18 -28 -3 -6 -3 -8 1 -4 14 12 35 -15 24 -30 -8 -9
-6 -11 8 -6 16 6 17 5 6 -7 -10 -11 -8 -17 10 -32 13 -10 16 -15 8 -11 -10 5
-8 -1 5 -16 11 -13 14 -20 8 -16 -9 5 -11 2 -7 -8 3 -9 10 -13 15 -10 5 3 6
-2 3 -10 -3 -9 -11 -13 -17 -9 -6 3 -3 -4 6 -18 19 -26 22 -43 7 -34 -6 4 -7
-2 -1 -17 4 -13 6 -29 3 -37 -3 -9 0 -11 8 -6 10 6 11 4 4 -6 -12 -19 -12 -33
0 -41 6 -4 5 -13 -3 -22 -10 -12 -10 -16 -2 -16 7 0 9 -5 4 -12 -4 -7 -6 -21
-4 -32 2 -13 -1 -16 -11 -10 -10 6 -11 5 -1 -8 7 -8 10 -18 6 -21 -3 -4 -1 -7
5 -7 8 0 9 -7 2 -26 -9 -23 -8 -25 7 -20 14 6 14 4 -3 -15 -10 -12 -13 -19 -6
-15 12 7 16 -3 12 -38 -1 -13 2 -16 12 -10 11 6 11 5 0 -8 -9 -12 -10 -18 -2
-23 8 -5 7 -11 -2 -23 -11 -13 -11 -14 0 -8 10 6 11 1 7 -21 -5 -19 -4 -24 3
-15 7 11 10 9 15 -7 3 -12 0 -24 -5 -28 -7 -3 -8 -1 -4 5 5 8 1 10 -10 5 -15
-5 -15 -7 1 -16 14 -8 15 -11 4 -18 -11 -7 -10 -9 3 -9 11 0 15 -5 12 -14 -3
-9 -12 -12 -21 -9 -9 4 -14 2 -10 -3 3 -5 -3 -10 -13 -10 -10 0 -16 4 -14 8 8
12 -11 9 -24 -4 -9 -9 -12 -9 -12 2 0 11 -3 11 -12 2 -13 -13 -32 -17 -25 -4
3 4 -8 7 -23 7 -16 1 -26 -3 -24 -7 3 -4 0 -8 -5 -8 -6 0 -11 5 -11 11 0 8 -6
7 -17 -2 -14 -12 -16 -12 -8 0 6 11 4 13 -7 8 -9 -3 -21 0 -28 6 -9 9 -11 9
-7 1 4 -7 0 -15 -9 -18 -12 -4 -15 -2 -10 9 4 12 2 13 -12 6 -11 -6 -24 -6
-36 1 -12 7 -17 7 -12 0 3 -5 -1 -13 -10 -16 -8 -3 -12 -2 -9 4 3 6 1 10 -5
10 -6 0 -8 5 -5 10 3 5 -2 10 -12 10 -15 0 -16 2 -3 10 13 9 13 10 0 10 -13 0
-13 1 0 10 13 9 13 10 0 10 -13 0 -13 1 0 10 8 5 10 10 4 10 -6 0 -11 6 -12
13 0 6 -2 29 -3 49 -1 21 -6 35 -12 31 -5 -3 -4 5 3 17 8 15 8 20 1 16 -7 -5
-11 1 -11 14 0 14 4 19 13 14 6 -4 3 3 -8 16 -11 13 -14 20 -6 15 9 -5 12 -3
9 6 -3 8 -1 23 5 33 7 15 6 18 -7 13 -8 -3 -18 -2 -21 4 -4 5 -1 8 7 7 7 -2
11 4 9 12 -2 8 -4 21 -4 28 0 6 -5 12 -11 12 -6 0 -4 5 4 10 12 8 12 10 1 10
-8 0 -11 3 -8 7 4 3 2 12 -4 20 -9 10 -7 13 7 14 16 0 16 2 -3 9 -13 5 -23 12
-23 15 0 4 5 3 10 0 6 -3 10 -2 10 3 0 6 -7 13 -16 16 -8 3 -12 10 -9 16 4 7
-2 7 -18 1 -18 -7 -29 -5 -42 7 -17 16 -17 16 -12 -1 6 -15 4 -16 -16 -6 -21
12 -21 11 -7 -6 14 -17 14 -17 -7 -5 -12 8 -20 17 -18 20 2 4 -2 7 -9 7 -9 0
-12 -7 -9 -16 5 -13 3 -14 -7 -4 -9 9 -19 9 -33 2 -12 -7 -17 -7 -13 -1 3 6
-5 9 -19 8 -14 0 -25 -5 -25 -10 0 -5 -3 -6 -7 -3 -3 4 -13 1 -21 -6 -13 -9
-14 -9 -8 1 4 6 3 12 -3 12 -5 0 -12 -6 -14 -12 -4 -10 -6 -10 -6 0 -1 6 -6
12 -12 12 -5 0 -8 -4 -4 -9 3 -6 -3 -8 -15 -6 -11 2 -22 -1 -26 -6 -4 -6 -14
-3 -27 8 -11 10 -17 13 -14 7 4 -7 0 -14 -7 -17 -9 -4 -17 1 -19 11 -4 16 -5
15 -6 0 0 -10 -6 -18 -12 -18 -6 0 -7 6 -2 13 4 6 -6 4 -21 -7 -16 -10 -26
-13 -22 -8 4 6 -2 10 -13 9 -11 0 -17 -5 -15 -9 3 -4 -2 -8 -12 -8 -11 0 -15
-6 -11 -20 3 -11 1 -18 -4 -14 -5 3 -9 0 -9 -6 0 -6 -6 -8 -12 -5 -7 4 -5 0 5
-8 17 -14 14 -53 -3 -42 -5 3 -5 -7 -1 -22 4 -16 7 -45 6 -65 -1 -21 1 -35 6
-33 4 3 7 -4 6 -15 -1 -11 -5 -20 -11 -20 -5 0 1 -9 14 -20 13 -11 18 -20 11
-20 -13 0 -10 -48 5 -72 6 -10 4 -10 -9 1 -15 12 -17 12 -11 -3 3 -9 11 -16
17 -16 6 0 3 -6 -7 -13 -17 -12 -17 -14 1 -28 16 -13 17 -13 4 3 -7 10 -9 18
-3 18 13 0 24 -28 13 -35 -11 -6 -1 -96 13 -114 8 -11 8 -13 0 -8 -7 4 -15 0
-18 -9 -3 -8 -2 -13 3 -10 14 9 21 -20 8 -33 -8 -8 -8 -11 2 -11 11 0 11 -3 0
-17 -10 -11 -10 -14 -1 -9 8 5 12 -2 12 -24 0 -22 -4 -29 -12 -24 -7 4 -6 -1
3 -10 9 -9 25 -18 37 -19 22 -1 31 -17 10 -17 -6 0 -8 -3 -4 -7 4 -5 14 0 21
10 14 20 9 57 -9 57 -6 0 -4 5 4 10 12 8 12 10 1 10 -11 0 -11 3 -1 15 15 18
52 14 58 -6 3 -11 1 -11 -7 1 -6 8 -11 10 -11 4 0 -16 35 -45 45 -37 4 5 5 2
1 -5 -6 -11 -11 -11 -24 0 -13 11 -15 11 -10 -4 5 -11 0 -18 -14 -21 -14 -4
-19 -11 -14 -22 3 -9 2 -13 -4 -10 -15 9 -12 -4 4 -20 7 -8 16 -12 20 -10 3 3
4 2 1 -2 -3 -3 1 -13 8 -21 8 -11 8 -14 0 -9 -6 4 -15 2 -19 -4 -4 -8 -3 -9 4
-5 7 4 12 2 12 -4 0 -6 5 -8 10 -5 14 8 12 -7 -3 -26 -7 -9 -23 -15 -36 -14
-21 2 -22 0 -8 -10 9 -7 14 -15 10 -18 -3 -4 1 -7 10 -7 10 0 17 -4 17 -10 0
-5 -5 -10 -11 -10 -5 0 -7 -5 -3 -12 4 -7 3 -8 -5 -4 -6 4 -8 12 -5 18 4 6 -2
8 -17 3 -16 -4 -20 -3 -11 3 11 7 11 10 -3 15 -9 4 -13 3 -10 -3 3 -6 1 -10
-5 -10 -6 0 -8 -5 -5 -10 3 -6 -2 -10 -12 -11 -16 0 -16 -1 2 -9 12 -5 14 -9
6 -9 -11 -1 -10 -5 5 -16 10 -8 15 -15 10 -15 -5 0 -2 -8 5 -17 10 -11 10 -14
2 -9 -7 4 -13 2 -13 -3 0 -6 5 -11 11 -11 5 0 8 -4 5 -8 -8 -13 23 -52 40 -52
8 0 14 -7 14 -16 0 -8 5 -12 10 -9 6 3 10 2 10 -3 0 -6 7 -13 16 -16 15 -6 15
-4 3 10 -13 16 -12 16 8 4 12 -8 19 -18 17 -22 -3 -4 -1 -8 5 -8 5 0 11 6 14
13 3 9 7 9 19 0 11 -10 17 -10 26 -1 9 9 12 7 13 -7 0 -19 1 -19 9 0 5 11 9
14 9 6 1 -9 5 -10 13 -4 11 8 33 10 41 3 9 -7 36 -6 31 1 -3 5 -10 6 -16 3 -7
-4 -8 -2 -4 5 6 9 13 8 31 -3 20 -13 25 -13 35 -1 10 12 16 13 26 4 11 -9 14
-7 14 7 1 16 3 15 15 -6 l14 -25 1 23 c0 21 1 22 16 8 20 -21 28 -20 20 1 -6
14 -3 14 15 -3 12 -10 19 -13 14 -5 -6 11 -4 13 7 8 9 -3 19 -3 22 1 10 10 46
13 46 4 0 -10 30 -9 47 1 21 13 82 11 100 -4 16 -13 17 -12 5 3 -9 11 -10 18
-2 23 5 3 10 1 10 -4 0 -6 5 -11 11 -11 5 0 7 6 3 13 -5 8 -2 8 9 -2 12 -9 17
-10 17 -2 0 7 5 9 10 6 6 -4 8 -12 4 -18 -3 -7 1 -4 9 6 20 24 21 24 40 8 20
-16 23 -2 5 19 -7 8 -3 6 10 -4 15 -13 22 -15 22 -6 0 10 3 10 14 1 11 -9 16
-9 22 0 5 8 3 9 -6 4 -8 -5 -11 -4 -7 2 7 11 36 11 54 0 6 -4 14 -3 18 3 4 7
12 7 25 0 13 -7 21 -7 26 2 4 6 3 8 -4 4 -6 -3 -14 -1 -18 6 -4 7 -4 10 1 6 4
-4 14 -3 21 3 8 7 14 6 20 -2 5 -8 3 -10 -7 -4 -12 7 -12 6 0 -6 11 -11 14
-11 18 -1 4 10 8 10 19 1 12 -10 13 -8 7 7 -6 17 -5 17 10 5 14 -11 20 -11 34
0 11 9 14 10 9 2 -5 -9 -2 -11 8 -7 9 3 13 10 10 15 -3 5 2 6 10 3 9 -3 13
-10 10 -15 -3 -5 2 -6 10 -3 9 3 14 9 12 13 -5 7 80 5 101 -3 8 -3 12 -2 9 3
-3 5 3 11 14 14 13 3 18 1 13 -6 -3 -7 3 -4 14 6 14 12 23 15 28 8 4 -8 11 -6
21 4 9 8 21 12 27 8 7 -4 8 0 4 11 -5 12 -3 15 6 9 20 -12 37 -12 34 0 -1 7 5
13 13 13 8 1 19 2 23 3 4 0 3 10 -3 21 -9 17 -8 19 7 13 10 -3 15 -3 11 1 -9
11 14 36 26 28 5 -3 6 1 1 8 -4 7 -2 16 6 21 12 8 12 11 -1 19 -13 8 -13 10 2
10 11 0 15 5 12 14 -3 8 0 17 6 21 9 6 9 9 0 15 -9 6 -7 15 6 36 11 15 14 25
8 21 -8 -4 -10 13 -8 58 1 38 -2 65 -7 65 -6 0 -7 6 -3 12 10 16 13 48 4 43
-4 -2 -7 9 -8 26 0 20 3 27 11 22 9 -5 9 -3 1 8 -6 8 -11 25 -12 37 0 13 -8
29 -18 36 -15 11 -15 14 0 28 19 20 21 32 4 22 -9 -5 -9 -2 1 9 11 14 11 17 0
18 -8 0 -5 4 6 9 16 7 17 9 3 9 -22 1 -32 17 -17 27 8 5 9 3 4 -6 -5 -9 -4
-11 4 -6 9 6 9 11 1 21 -14 17 -22 57 -9 50 5 -4 6 -11 3 -17 -4 -7 -2 -8 4
-4 8 5 8 13 0 31 -6 13 -15 22 -19 19 -5 -3 -6 2 -3 10 3 9 11 13 16 10 7 -5
7 -1 1 11 -6 10 -8 27 -6 39 4 17 3 18 -6 6 -6 -8 -11 -10 -11 -4 0 5 5 15 12
22 9 9 9 12 -1 12 -11 0 -11 3 -2 14 10 11 8 17 -6 25 -13 7 -14 10 -4 11 8 0
11 3 8 7 -4 3 -1 13 6 21 9 13 9 14 0 8 -13 -7 -17 1 -15 41 1 13 -4 23 -10
23 -7 0 -3 7 8 16 10 8 14 13 7 10 -18 -9 -25 11 -13 35 8 15 9 24 1 32 -7 7
-7 16 0 30 7 12 7 17 1 13 -18 -11 -22 23 -4 34 16 11 16 11 -1 6 -15 -5 -17
-2 -12 15 6 17 4 20 -6 13 -11 -6 -12 -5 -2 7 6 8 12 19 13 24 1 6 7 8 14 7 6
-2 7 0 3 5 -5 4 -13 9 -18 9 -5 1 -11 2 -14 3 -3 0 -1 10 5 21 8 15 8 20 -2
20 -9 0 -9 3 -1 11 14 14 5 41 -11 32 -6 -4 -5 1 3 10 11 14 11 17 0 17 -11 0
-11 2 1 10 13 8 12 10 -3 10 -17 0 -17 1 -3 16 21 21 20 27 -3 15 -16 -9 -18
-8 -13 11 3 14 1 19 -6 14 -8 -5 -10 -2 -6 8 5 12 -1 16 -22 16 -22 0 -25 3
-14 9 8 6 19 7 25 3 5 -3 4 2 -4 12 -10 12 -17 14 -25 6 -5 -5 -15 -10 -21
-10 -5 0 -3 4 5 10 12 8 12 11 -3 28 -9 10 -15 21 -12 24 3 2 -2 5 -10 5 -12
0 -10 -6 7 -25 l23 -25 -27 19 c-15 10 -28 25 -28 32 0 7 -4 10 -10 7 -5 -3
-10 1 -10 10 0 9 -4 13 -10 10 -6 -4 -7 1 -3 11 4 12 3 15 -5 10 -8 -5 -10 -2
-6 8 4 11 0 16 -12 17 -12 0 -14 3 -6 6 9 3 4 13 -15 30 -15 14 -23 23 -17 20
6 -4 11 0 11 8 0 11 -5 12 -21 3 -20 -11 -20 -10 -6 8 8 10 10 16 6 12 -13
-11 -36 11 -36 36 0 17 -2 18 -10 6 -8 -12 -10 -11 -10 8 0 12 -6 22 -14 22
-8 0 -18 10 -22 22 -4 12 -20 36 -37 53 -17 16 -27 24 -22 16 5 -9 4 -12 -3
-7 -6 4 -8 14 -5 23 4 10 2 14 -4 10 -6 -4 -13 3 -16 14 -3 12 -10 18 -17 14
-6 -3 -10 -3 -9 2 4 21 -2 33 -16 33 -8 0 -15 5 -15 11 0 5 -4 8 -9 5 -11 -7
-23 22 -15 35 3 5 2 9 -3 8 -21 -4 -33 2 -33 17 0 8 -4 13 -9 10 -5 -4 -7 4
-4 16 4 19 3 20 -7 8 -10 -12 -11 -11 -7 8 3 12 1 20 -3 17 -5 -3 -15 1 -23 9
-8 8 -18 12 -23 8 -5 -4 -2 2 6 12 10 13 10 17 3 12 -8 -4 -13 -2 -13 4 0 6
-5 8 -12 4 -6 -4 -8 -3 -4 4 3 6 -3 17 -14 25 -11 7 -17 17 -13 20 3 4 1 7 -6
7 -7 0 -9 5 -6 10 3 6 1 10 -5 10 -26 0 -68 65 -47 74 8 4 7 5 -3 5 -28 -2
-43 1 -37 7 7 7 -5 21 -43 48 -19 14 -20 17 -5 12 19 -7 19 -6 3 11 -53 55
-67 72 -77 92 -8 13 -18 20 -27 17 -12 -5 -12 -2 -3 15 8 16 8 19 0 15 -6 -4
-14 0 -17 8 -3 9 -12 16 -20 16 -8 0 -11 6 -7 17 4 9 2 14 -3 11 -5 -3 -18 4
-29 15 -12 11 -14 17 -5 13 8 -4 7 -1 -4 8 -11 9 -15 20 -10 28 6 9 3 9 -10
-1 -9 -8 -16 -10 -15 -5 5 26 -3 43 -22 49 -17 6 -19 9 -8 16 11 7 10 9 -4 9
-10 0 -21 8 -24 18 -4 9 -14 23 -22 30 -9 8 -10 11 -4 7 9 -4 11 -1 7 9 -3 9
-11 13 -18 9 -6 -3 -6 -1 2 8 14 15 17 33 4 25 -5 -3 -9 1 -9 9 0 8 4 12 9 9
4 -3 8 0 8 5 0 6 -5 11 -12 11 -9 0 -9 3 0 12 18 18 15 31 -5 24 -15 -5 -15
-4 1 9 14 11 16 15 5 15 -12 0 -12 2 1 10 8 5 10 10 4 10 -7 0 -14 7 -17 14
-4 10 -1 13 7 10 7 -3 13 2 13 11 0 9 -6 14 -13 11 -14 -6 -7 25 9 35 5 3 1 9
-8 12 -10 5 -14 3 -9 -5 4 -6 3 -8 -2 -5 -11 6 -11 47 0 65 4 7 2 12 -6 12 -9
0 -9 3 2 10 8 5 10 10 4 10 -7 0 -14 7 -18 15 -3 8 -2 14 2 14 21 -4 22 3 1
20 l-24 20 25 -5 c21 -5 22 -4 8 6 -10 6 -18 16 -18 21 0 6 4 8 9 5 5 -4 7 8
4 26 -3 18 -10 36 -16 40 -11 7 -3 12 15 9 4 0 5 8 3 19 -2 11 1 22 6 26 6 4
6 10 -1 19 -8 10 -8 15 1 21 8 4 9 3 5 -4 -4 -7 -2 -12 5 -12 7 0 9 8 6 21 -4
16 -3 19 5 11 17 -17 21 -55 6 -46 -9 5 -8 2 1 -10 10 -12 16 -13 21 -6 4 7
11 12 16 13 5 1 8 7 6 12 -2 6 4 2 14 -7 16 -16 18 -16 31 0 8 9 12 12 9 6 -3
-7 1 -15 10 -18 8 -3 12 -2 9 4 -3 5 3 8 12 8 10 0 33 2 51 6 21 4 31 3 28 -3
-4 -5 -1 -13 5 -17 7 -4 9 -3 6 3 -4 6 2 13 13 16 11 3 23 1 26 -4 4 -6 11 -6
19 1 9 8 15 8 20 0 8 -13 25 -13 25 1 0 5 -5 7 -12 3 -7 -4 -8 -3 -4 5 10 16
39 -7 32 -26 -3 -7 0 -13 7 -13 8 0 6 -4 -3 -10 -12 -8 -12 -10 -1 -10 11 0 9
-5 -5 -22 -15 -19 -16 -20 -1 -9 19 15 23 1 5 -18 -11 -10 -10 -11 3 -6 10 4
16 0 16 -10 0 -9 -6 -14 -14 -11 -17 7 -17 1 3 -18 12 -12 12 -16 2 -16 -10 0
-9 -3 2 -10 12 -8 12 -10 -5 -10 -18 -1 -18 -2 3 -11 15 -6 21 -13 15 -21 -11
-19 -13 -39 -2 -32 11 6 5 -38 -7 -58 -6 -10 -3 -9 9 0 14 12 16 11 12 -7 -2
-11 2 -27 10 -35 8 -7 11 -17 7 -22 -4 -5 1 -2 11 5 15 12 17 12 11 -4 -6 -14
-4 -16 6 -10 9 5 11 4 6 -3 -22 -37 -4 -84 26 -66 10 6 11 5 1 -7 -11 -13 -9
-15 7 -14 11 1 23 5 27 10 5 4 2 5 -6 0 -10 -6 -12 -4 -6 5 6 10 11 9 22 -5 7
-11 13 -14 13 -8 0 6 11 11 25 11 22 0 24 -3 13 -17 -12 -14 -11 -15 6 -1 24
19 47 21 65 7 12 -10 13 -9 6 2 -6 11 -4 13 7 9 8 -4 21 -2 29 3 9 5 23 2 38
-7 13 -9 21 -12 17 -6 -7 11 19 24 28 14 9 -8 46 -10 41 -1 -3 4 4 9 15 12 23
6 26 -3 8 -23 -7 -8 -3 -6 10 4 12 11 22 16 22 11 0 -4 8 -1 17 6 14 12 16 12
9 0 -6 -9 -5 -12 5 -9 8 3 13 10 12 15 -1 6 9 9 22 7 14 -1 28 3 32 8 4 7 1 8
-7 3 -8 -5 -11 -3 -8 6 3 8 11 13 17 11 7 -1 10 2 6 8 -4 6 -1 17 5 25 9 11 9
15 1 15 -6 0 -11 5 -11 11 0 5 4 8 8 5 4 -2 8 8 7 24 0 15 -3 26 -7 24 -4 -3
-6 18 -4 45 1 27 -1 48 -5 45 -18 -11 -14 23 5 44 11 13 17 23 11 22 -21 -5
-25 1 -15 20 9 16 8 20 -5 20 -18 0 -20 16 -3 26 7 5 8 3 3 -6 -5 -9 -4 -11 4
-6 9 6 9 11 0 22 -9 11 -8 14 2 14 12 0 12 2 0 9 -8 5 -15 21 -17 36 -3 26 -2
26 12 9 14 -18 15 -18 5 2 -6 12 -7 25 -3 29 4 5 -2 5 -12 1 -15 -5 -17 -4 -8
7 9 10 8 17 -1 27 -10 10 -9 12 5 7 12 -4 15 -2 11 8 -3 8 -9 13 -13 10 -5 -3
-6 4 -3 15 3 11 10 17 16 13 6 -4 7 -1 3 6 -5 7 -14 10 -21 7 -8 -3 -12 2 -10
12 1 9 8 16 13 15 6 -2 9 4 6 12 -4 8 -9 13 -13 10 -4 -2 -8 2 -8 10 0 8 4 12
9 9 4 -3 8 -1 8 5 0 5 -6 12 -12 14 -9 4 -9 6 1 6 11 1 10 5 -5 16 -18 13 -18
14 6 8 24 -5 24 -5 6 9 -13 11 -16 17 -7 22 6 4 9 12 5 17 -3 5 -11 6 -17 2
-9 -5 -9 -3 0 8 10 12 10 18 0 28 -9 10 -8 11 8 5 17 -6 16 -4 -5 15 -14 12
-19 20 -12 16 7 -4 12 0 12 9 0 9 -6 16 -12 16 -8 0 -9 3 -3 8 12 9 16 44 4
36 -5 -3 -9 7 -9 21 0 18 -4 24 -12 19 -10 -6 -10 -4 0 8 11 14 10 17 -5 21
-17 4 -17 5 0 6 10 0 15 6 12 11 -4 6 -11 8 -16 5 -5 -4 -12 8 -16 25 -3 17
-9 28 -12 23 -12 -16 -30 -13 -24 4 4 11 3 14 -5 9 -7 -4 -12 -1 -12 8 0 8 -4
18 -10 21 -6 3 -7 -1 -4 -12 4 -13 2 -13 -8 3 -7 12 -18 19 -25 17 -6 -2 -15
1 -19 8 -5 8 -3 9 6 4 9 -5 11 -4 6 4 -6 9 -11 9 -22 0 -11 -9 -14 -8 -14 2 0
11 -2 11 -10 -1 -6 -10 -10 -11 -10 -2 0 6 -6 12 -14 12 -8 0 -17 -6 -19 -12
-4 -10 -6 -10 -6 0 -1 15 -31 16 -31 0 0 -6 -7 -3 -16 8 -8 10 -13 14 -10 7
10 -18 -17 -21 -43 -4 -24 15 -24 15 -11 -9z m-363 -42 c-3 -8 -6 -5 -6 6 -1
11 2 17 5 13 3 -3 4 -12 1 -19z m-206 -27 c-14 -25 -2 -35 16 -13 13 15 13 15
3 -6 -9 -18 -14 -21 -25 -12 -8 7 -18 9 -22 7 -5 -3 -9 3 -9 13 0 10 3 17 6
15 3 -2 12 0 20 6 21 12 22 11 11 -10z m-241 -7 c0 -8 -19 -13 -24 -6 -3 5 1
9 9 9 8 0 15 -2 15 -3z m-215 -25 c-4 -5 -1 -9 4 -9 6 0 11 -5 11 -12 0 -9 -3
-9 -12 0 -14 14 -20 44 -7 36 5 -3 7 -10 4 -15z m545 -18 c0 -2 -3 -1 -7 2 -3
4 -13 1 -21 -6 -13 -10 -14 -9 -7 2 6 11 4 13 -9 8 -14 -5 -15 -3 -6 13 10 18
11 19 30 3 11 -10 20 -19 20 -22z m-486 -3 c-3 -4 -2 -8 3 -8 4 0 8 -18 9 -40
1 -22 -3 -40 -8 -40 -5 0 -6 5 -2 12 5 8 2 9 -9 5 -10 -3 -17 -2 -17 4 0 6 -4
8 -8 5 -4 -2 -9 5 -9 16 -1 12 6 22 17 25 11 3 17 9 14 14 -3 5 -10 6 -16 3
-6 -4 -8 -3 -5 3 3 5 13 10 21 10 8 0 13 -4 10 -9z m376 -115 c0 -8 5 -11 11
-7 6 3 3 -6 -7 -22 -16 -24 -16 -27 -2 -16 11 9 18 10 23 2 8 -12 -20 -24 -35
-15 -6 4 -9 13 -6 21 3 8 1 14 -3 14 -5 0 -12 -6 -14 -12 -3 -7 -6 -4 -7 7
l-1 20 -9 -20 c-7 -16 -9 -17 -9 -3 -1 9 2 23 5 31 7 19 54 19 54 0z m205 -15
c4 0 11 6 16 14 6 9 8 6 6 -9 -1 -13 -5 -19 -12 -14 -13 10 -25 8 -53 -7 -22
-12 -22 -12 -10 7 6 11 16 17 20 15 4 -3 8 1 8 8 0 10 2 10 9 0 4 -8 12 -14
16 -14z m-205 -68 c0 -5 -2 -10 -4 -10 -3 0 -8 5 -11 10 -3 6 -1 10 4 10 6 0
11 -4 11 -10z m37 -26 c0 -6 -9 -9 -19 -6 -10 2 -18 8 -18 13 0 4 8 7 18 6 10
0 19 -6 19 -13z m-23 -42 c-5 -23 -3 -24 13 -11 16 13 17 12 4 -3 -7 -10 -18
-15 -25 -11 -6 4 -5 -1 3 -10 15 -19 8 -22 -19 -7 -16 8 -18 8 -14 -5 4 -8 1
-15 -5 -15 -6 0 -10 16 -8 39 2 36 3 38 27 30 21 -8 22 -7 10 3 -24 20 -25 41
-1 26 13 -8 18 -19 15 -36z m369 34 c6 -15 -17 -16 -30 -1 -4 4 -2 5 5 1 6 -4
12 -2 12 3 0 15 7 14 13 -3z m-172 -19 c-10 -9 -11 -8 -5 6 3 10 9 15 12 12 3
-3 0 -11 -7 -18z m53 11 c-3 -4 -9 -8 -15 -8 -5 0 -9 4 -9 8 0 5 7 9 15 9 8 0
12 -4 9 -9z m-95 -24 c-9 -12 -9 -13 4 -8 12 4 14 1 10 -17 -4 -13 -8 -18 -10
-12 -3 7 -10 10 -18 7 -20 -8 -30 17 -11 28 9 5 14 13 11 19 -3 5 1 6 10 3 12
-5 13 -9 4 -20z m-544 -58 c20 -19 20 -19 -12 -14 -28 4 -31 2 -20 -11 10 -12
9 -13 -2 -7 -8 5 -16 4 -21 -4 -5 -8 -9 -7 -13 5 -5 11 -3 14 6 10 6 -4 3 1
-7 9 -11 9 -14 16 -8 16 7 0 12 8 12 18 0 28 12 34 29 15 9 -10 25 -26 36 -37z
m-1 18 c3 -8 2 -12 -4 -9 -6 3 -10 10 -10 16 0 14 7 11 14 -7z m587 -81 c-11
-5 -11 -7 0 -14 11 -7 10 -9 -3 -9 -11 0 -15 -5 -12 -14 8 -20 -14 -30 -29
-14 -18 19 -18 48 1 41 8 -4 13 -2 9 3 -3 5 6 10 21 11 15 1 21 -1 13 -4z
m-315 -105 c4 4 2 -2 -6 -12 -14 -18 -13 -19 3 -13 10 4 16 3 12 -2 -3 -6 -14
-9 -25 -8 -14 1 -16 4 -8 14 6 7 6 13 1 13 -5 0 -10 7 -10 16 0 15 1 15 12 0
7 -8 16 -12 21 -8z m44 -64 c0 -8 5 -14 11 -14 5 0 7 5 3 12 -5 7 -3 8 6 3 10
-6 9 -11 -5 -21 -23 -17 -32 -11 -32 21 0 13 3 22 8 19 5 -3 9 -12 9 -20z m50
-125 c0 -5 -5 -7 -12 -3 -7 5 -8 3 -3 -7 14 -21 13 -46 -1 -46 -7 0 -11 4 -8
9 3 4 -1 11 -9 14 -7 2 -14 11 -14 19 0 8 4 12 8 9 4 -2 10 0 14 6 8 13 25 13
25 -1z m-505 -688 c3 -5 2 -12 -3 -15 -5 -3 -9 1 -9 9 0 17 3 19 12 6z m174
-235 c-3 -3 -11 5 -18 17 -13 21 -12 21 5 5 10 -10 16 -20 13 -22z m1551
-1190 c0 -3 -4 -8 -10 -11 -5 -3 -10 -1 -10 4 0 6 5 11 10 11 6 0 10 -2 10 -4z
m-1313 -568 c-3 -8 -6 -5 -6 6 -1 11 2 17 5 13 3 -3 4 -12 1 -19z m-1 -209
c19 -22 19 -22 -3 -8 -13 8 -23 17 -23 21 0 12 6 9 26 -13z m-163 -42 c3 -8
-1 -14 -8 -14 -7 0 -11 6 -8 14 3 7 6 13 8 13 2 0 5 -6 8 -13z m243 -65 c0
-10 -6 -19 -13 -19 -17 0 -17 24 0 30 6 3 12 6 12 6 1 1 1 -7 1 -17z m-119
-54 c-3 -8 -6 -5 -6 6 -1 11 2 17 5 13 3 -3 4 -12 1 -19z m17 -46 c2 -4 0 -14
-6 -22 -8 -12 -9 -11 -4 4 5 14 2 17 -9 12 -9 -3 -13 -2 -10 4 7 12 22 13 29
2z m-54 -43 c0 -5 -4 -8 -9 -4 -6 3 -9 -4 -8 -15 2 -26 3 -25 22 8 9 15 14 20
11 11 -2 -9 1 -22 7 -28 9 -9 8 -10 -7 -5 -13 5 -17 4 -13 -3 4 -6 -2 -13 -13
-16 -11 -3 -18 -1 -14 4 3 5 -1 9 -8 10 -10 0 -10 2 0 6 6 2 10 9 6 14 -6 11
4 29 17 29 5 0 9 -5 9 -11z m-66 -145 c3 -8 2 -12 -4 -9 -6 3 -10 10 -10 16 0
14 7 11 14 -7z"/>
<path d="M1820 4481 c0 -10 19 -25 25 -20 1 2 -3 10 -11 17 -8 7 -14 8 -14 3z"/>
<path d="M2210 4401 c0 -6 4 -13 10 -16 6 -3 7 1 4 9 -7 18 -14 21 -14 7z"/>
<path d="M2210 4239 c0 -5 5 -7 10 -4 6 3 10 8 10 11 0 2 -4 4 -10 4 -5 0 -10
-5 -10 -11z"/>
<path d="M2681 3593 c1 -4 0 -10 -1 -13 -7 -18 -7 -39 0 -35 5 3 13 -3 19 -12
6 -10 11 -13 11 -6 0 6 -4 14 -9 18 -6 3 -8 14 -6 25 2 11 -1 22 -6 26 -5 3
-9 2 -8 -3z"/>
<path d="M2290 2425 c0 -8 4 -15 10 -15 5 0 7 7 4 15 -4 8 -8 15 -10 15 -2 0
-4 -7 -4 -15z"/>
<path d="M1910 850 c8 -5 22 -10 30 -10 13 0 13 1 0 10 -8 5 -22 10 -30 10
-13 0 -13 -1 0 -10z"/>
<path d="M1914 823 c15 -4 16 -7 5 -14 -11 -7 -11 -9 2 -9 9 0 19 7 23 15 4
11 -2 15 -22 14 -19 -1 -22 -3 -8 -6z"/>
<path d="M2476 488 c3 -5 10 -6 15 -3 13 9 11 12 -6 12 -8 0 -12 -4 -9 -9z"/>
<path d="M2196 468 c3 -5 10 -6 15 -3 13 9 11 12 -6 12 -8 0 -12 -4 -9 -9z"/>
</g>
</svg>
