<?xml version="1.0" standalone="no"?>
<!DOCTYPE svg PUBLIC "-//W3C//DTD SVG 20010904//EN"
 "http://www.w3.org/TR/2001/REC-SVG-20010904/DTD/svg10.dtd">
<svg version="1.0" xmlns="http://www.w3.org/2000/svg"
 width="260.000000pt" height="260.000000pt" viewBox="0 0 260.000000 260.000000"
 preserveAspectRatio="xMidYMid meet">
<metadata>
Created by potrace 1.14, written by Peter Selinger 2001-2017
</metadata>
<g transform="translate(0.000000,260.000000) scale(0.100000,-0.100000)"
fill="#000000" stroke="none">
<path d="M2158 2443 c-15 -17 -30 -93 -18 -93 3 0 6 -18 8 -39 2 -35 0 -39
-19 -34 -19 5 -20 3 -14 -40 7 -45 -7 -111 -26 -123 -5 -3 -36 14 -69 38 -32
24 -79 56 -104 71 -26 16 -49 39 -52 52 -11 42 -114 109 -114 74 0 -14 81
-128 109 -153 11 -11 21 -27 21 -38 0 -10 4 -18 8 -18 4 0 16 -13 25 -29 11
-19 43 -43 89 -66 81 -40 88 -47 88 -91 0 -55 -25 -66 -141 -65 -83 1 -108 6
-143 24 -47 25 -165 32 -162 10 4 -27 92 -82 151 -95 40 -9 60 -18 60 -28 0
-12 -15 -15 -70 -15 -38 0 -76 -4 -83 -8 -7 -5 -23 -30 -37 -56 -13 -27 -32
-52 -42 -56 -10 -4 -42 -15 -70 -25 l-53 -19 0 39 c0 22 7 59 15 84 9 25 15
67 14 94 l-2 50 -31 -9 c-48 -14 -53 -12 -60 29 -3 25 -11 39 -20 39 -18 0
-56 -85 -56 -126 0 -80 -37 -171 -69 -171 -5 0 -19 16 -32 36 -18 30 -21 45
-15 95 9 92 -35 196 -66 154 -4 -5 -8 -38 -8 -72 0 -34 -3 -68 -6 -77 -8 -20
-24 -11 -24 14 0 37 -43 120 -61 120 -10 0 -20 -4 -24 -9 -3 -6 4 -56 16 -111
11 -56 18 -112 15 -125 -13 -53 -97 -32 -145 37 -49 69 -48 68 -114 68 -97 0
-120 31 -34 45 68 11 157 72 157 108 0 9 -3 8 -9 -2 -5 -7 -11 -9 -14 -3 -4 6
-26 4 -59 -5 -34 -9 -74 -12 -110 -8 -34 3 -66 2 -78 -5 -30 -16 -128 -32
-150 -25 -24 8 -50 54 -50 88 0 19 12 31 59 56 46 24 64 41 80 74 11 23 43 73
71 111 28 38 49 77 48 85 -6 31 -42 16 -78 -31 -37 -49 -188 -188 -203 -188
-6 0 -7 29 -3 70 6 60 5 70 -8 70 -16 0 -21 38 -17 120 1 27 -1 31 -8 20 -10
-13 -11 -13 -12 0 0 8 -6 0 -12 -17 -18 -48 -31 -44 -39 11 -14 101 -55 67
-43 -36 3 -32 2 -58 -3 -58 -13 0 -10 -29 4 -34 7 -3 24 -25 39 -50 22 -38 26
-54 23 -113 -3 -66 -4 -67 -16 -38 -16 37 -51 75 -69 75 -17 0 -16 -19 3 -66
22 -52 22 -175 0 -209 -9 -14 -30 -27 -51 -31 -20 -3 -37 -13 -40 -24 -3 -10
-21 -34 -40 -53 -19 -20 -35 -41 -35 -48 0 -20 80 -1 151 36 58 30 200 85 222
85 19 0 4 -31 -25 -53 -51 -38 -155 -87 -185 -87 -21 0 -45 -17 -95 -66 -37
-36 -65 -71 -62 -78 3 -9 36 -15 97 -19 141 -10 187 -18 187 -33 0 -17 17 -18
75 -2 39 11 49 10 75 -6 20 -11 40 -15 58 -11 21 4 38 -1 70 -25 55 -40 63
-72 27 -110 -25 -26 -33 -29 -70 -23 -37 5 -43 3 -48 -16 -3 -13 -13 -21 -26
-21 -12 0 -21 -6 -21 -15 0 -8 4 -15 10 -15 5 0 25 -13 43 -30 34 -30 67 -39
67 -20 0 6 5 10 10 10 17 0 11 -26 -10 -45 -11 -10 -20 -22 -20 -28 0 -14 72
-128 98 -154 13 -13 31 -23 41 -21 9 1 51 -19 93 -45 42 -26 82 -47 90 -47 11
0 14 17 13 73 0 49 5 80 14 90 16 20 64 22 80 4 15 -19 17 -110 3 -115 -17 -5
-15 -77 2 -91 7 -6 16 -33 19 -61 3 -27 13 -61 23 -74 9 -14 14 -33 10 -41 -3
-8 -1 -15 4 -15 13 0 42 -70 37 -90 -3 -10 -8 -5 -18 15 -18 37 -39 43 -39 11
0 -35 25 -114 87 -273 47 -123 58 -143 76 -143 19 0 29 20 76 148 30 81 58
152 63 158 4 6 10 32 12 57 3 26 7 51 11 56 3 6 -2 14 -10 19 -14 7 -14 12 -3
38 7 16 21 37 32 48 15 15 17 27 12 62 -5 36 -2 48 14 64 26 26 32 126 8 141
-7 5 -8 19 -1 45 8 36 11 39 43 39 32 0 36 -4 48 -40 7 -22 11 -61 9 -86 -3
-44 -2 -47 21 -44 13 1 36 12 50 24 58 46 78 56 141 72 55 14 67 20 69 39 2
13 -2 26 -8 30 -23 14 2 54 82 130 60 56 78 79 73 93 -4 9 -14 17 -23 17 -9 0
-40 12 -69 27 -45 24 -53 33 -55 58 -6 97 13 114 129 115 71 0 87 3 119 25 41
28 36 27 189 29 89 1 110 4 112 16 3 20 -200 162 -299 209 -62 29 -77 40 -78
59 0 12 6 25 14 28 19 7 227 -96 290 -144 27 -20 55 -41 62 -47 39 -29 23 45
-18 84 -17 16 -35 34 -42 41 -6 6 -32 33 -58 58 -53 54 -66 103 -47 187 23
104 23 125 2 125 -20 0 -51 -29 -71 -65 -10 -17 -11 -12 -12 29 0 36 8 63 29
101 31 55 39 121 21 180 -5 17 -14 49 -20 73 -12 45 -28 53 -52 25z m26 -167
c-3 -9 -10 -13 -15 -10 -5 3 -3 11 4 19 15 16 19 13 11 -9z m-714 -426 c0 -5
-8 -10 -17 -10 -15 0 -16 2 -3 10 19 12 20 12 20 0z m720 -15 c0 -8 -4 -15
-10 -15 -5 0 -10 7 -10 15 0 8 5 15 10 15 6 0 10 -7 10 -15z m-180 -39 c0 -3
-4 -8 -10 -11 -5 -3 -10 -1 -10 4 0 6 5 11 10 11 6 0 10 -2 10 -4z m-563 -38
c-3 -8 -6 -5 -6 6 -1 11 2 17 5 13 3 -3 4 -12 1 -19z m-678 -83 c0 -5 -6 -1
-14 9 -8 11 -15 24 -15 30 0 5 7 1 15 -10 8 -10 14 -23 14 -29z m1042 -22
c-15 -28 -20 -32 -21 -18 0 21 29 70 37 62 2 -3 -5 -22 -16 -44z m-1017 -9 c3
-9 6 -23 6 -31 0 -13 -3 -13 -15 -3 -38 31 -62 -22 -25 -55 22 -20 26 -55 10
-86 -14 -25 -34 -24 -52 4 -20 29 -132 65 -221 71 -79 4 -103 19 -72 42 30 22
112 43 185 48 36 2 73 7 82 11 9 3 25 2 37 -4 27 -15 41 -14 41 4 0 20 16 19
24 -1z m316 2 c0 -8 3 -23 6 -33 5 -16 4 -16 -10 1 -18 22 -21 46 -6 46 6 0
10 -6 10 -14z m1018 -36 c52 -32 41 -45 -53 -69 -47 -12 -117 -34 -157 -50
-84 -33 -94 -28 -83 42 11 62 18 70 77 83 90 19 178 17 216 -6z m-778 -64 c0
-3 -4 -8 -10 -11 -5 -3 -10 -1 -10 4 0 6 5 11 10 11 6 0 10 -2 10 -4z m-190
-61 c0 -18 -4 -23 -15 -19 -16 6 -20 26 -8 37 13 14 23 6 23 -18z m-88 -72
c43 -42 48 -73 18 -103 -22 -22 -75 -27 -112 -9 -27 12 -75 78 -78 106 -6 55
-5 56 67 50 60 -6 71 -11 105 -44z m646 35 c7 -9 6 -25 -4 -53 -19 -55 -19
-54 28 -61 78 -13 95 -55 56 -134 -26 -51 -61 -68 -141 -69 -91 -2 -143 52
-70 71 36 9 63 41 63 76 0 22 -2 22 -50 16 -41 -5 -54 -3 -70 11 -29 26 -25
41 21 93 33 38 49 48 82 53 68 10 74 10 85 -3z m-841 -96 c2 -10 17 -26 34
-37 16 -11 29 -25 29 -31 0 -16 62 -72 92 -83 36 -14 28 -34 -25 -57 -52 -24
-126 -23 -162 0 -34 22 -69 99 -60 133 4 16 17 29 36 36 24 9 29 17 26 34 -5
28 22 32 30 5z m493 -132 c0 -68 -16 -115 -50 -145 -22 -20 -22 -20 -37 0 -39
51 -57 148 -34 184 7 12 14 10 36 -8 35 -27 43 -27 57 4 18 41 28 29 28 -35z
m-180 -119 c0 -23 -39 -73 -51 -66 -13 9 -11 59 3 73 19 19 48 15 48 -7z m294
-7 c7 -18 -3 -64 -13 -64 -16 0 -31 26 -31 52 0 21 5 28 19 28 10 0 22 -7 25
-16z m-143 -138 c10 -38 -9 -80 -37 -84 -17 -2 -25 6 -38 38 -21 54 -20 68 7
73 44 9 60 3 68 -27z m342 4 c3 -11 1 -23 -4 -26 -5 -3 -9 6 -9 20 0 31 6 34
13 6z m-743 -10 c0 -5 -4 -10 -10 -10 -5 0 -10 5 -10 10 0 6 5 10 10 10 6 0
10 -4 10 -10z m530 -240 c0 -5 -5 -10 -11 -10 -5 0 -7 5 -4 10 3 6 8 10 11 10
2 0 4 -4 4 -10z m-18 -52 c-8 -8 -9 -4 -5 13 4 13 8 18 11 10 2 -7 -1 -18 -6
-23z m-115 -50 c-3 -8 -6 -5 -6 6 -1 11 2 17 5 13 3 -3 4 -12 1 -19z"/>
</g>
</svg>
